<?xml version="1.0" encoding="UTF-8" standalone="no"?>
<svg
   xmlns:dc="http://purl.org/dc/elements/1.1/"
   xmlns:cc="http://creativecommons.org/ns#"
   xmlns:rdf="http://www.w3.org/1999/02/22-rdf-syntax-ns#"
   xmlns:svg="http://www.w3.org/2000/svg"
   xmlns="http://www.w3.org/2000/svg"
   xmlns:sodipodi="http://sodipodi.sourceforge.net/DTD/sodipodi-0.dtd"
   xmlns:inkscape="http://www.inkscape.org/namespaces/inkscape"
   version="1.1"
   id="Ebene_1"
   x="0px"
   y="0px"
   viewBox="0 0 100.2 19"
   xml:space="preserve"
   sodipodi:docname="fbi.svg"
   width="1002"
   height="190"
   inkscape:version="0.92.4 5da689c313, 2019-01-14"><metadata
   id="metadata25"><rdf:RDF><cc:Work
       rdf:about=""><dc:format>image/svg+xml</dc:format><dc:type
         rdf:resource="http://purl.org/dc/dcmitype/StillImage" /><dc:title></dc:title></cc:Work></rdf:RDF></metadata><defs
   id="defs23" /><sodipodi:namedview
   pagecolor="#ffffff"
   bordercolor="#666666"
   borderopacity="1"
   objecttolerance="10"
   gridtolerance="10"
   guidetolerance="10"
   inkscape:pageopacity="0"
   inkscape:pageshadow="2"
   inkscape:window-width="1920"
   inkscape:window-height="1056"
   id="namedview21"
   showgrid="false"
   inkscape:zoom="0.67876853"
   inkscape:cx="383.7782"
   inkscape:cy="299.4838"
   inkscape:window-x="0"
   inkscape:window-y="0"
   inkscape:window-maximized="1"
   inkscape:current-layer="Ebene_1"
   units="mm"
   scale-x="0.1" />
<style
   type="text/css"
   id="style2">
	.st0{fill:#3F9CD7;}
</style>



<path
   d="M 3.7,13.9 V 13.4 H 0.4 v 5.3 H 1 V 16.3 H 3.3 V 15.8 H 1 v -2 h 2.7 z m 4.7,4.9 -2,-5.3 H 6 L 4,18.8 H 4.6 L 5,17.6 h 2.3 l 0.5,1.2 z M 7.2,17.1 h -2 l 1,-2.8 z m 5.8,0.1 h -0.6 c -0.1,0.7 -0.6,1.1 -1.3,1.1 -0.4,0 -0.7,-0.1 -0.9,-0.4 -0.3,-0.3 -0.4,-0.7 -0.4,-1.8 0,-1.1 0,-1.5 0.4,-1.8 0.2,-0.2 0.6,-0.4 0.9,-0.4 0.7,0 1.1,0.4 1.3,1.1 H 13 c -0.2,-1 -0.9,-1.6 -1.9,-1.6 -0.5,0 -1,0.2 -1.4,0.6 -0.5,0.5 -0.5,1 -0.5,2.2 0,1.1 0,1.7 0.5,2.2 0.4,0.4 0.8,0.6 1.4,0.6 1,-0.2 1.7,-0.8 1.9,-1.8 z m 5.1,1.6 v -5.3 h -0.6 v 2.4 H 15 v -2.4 h -0.6 v 5.3 H 15 v -2.4 h 2.5 v 2.4 z m 5.6,-1.5 c 0,-0.6 -0.4,-1.1 -0.9,-1.3 0.4,-0.2 0.8,-0.6 0.8,-1.2 0,-0.9 -0.6,-1.4 -1.6,-1.4 h -2 v 5.3 h 2.1 c 1,0.1 1.6,-0.5 1.6,-1.4 z m -0.5,0 c 0,0.6 -0.4,1 -1.1,1 h -1.5 v -2 h 1.5 c 0.7,0 1.1,0.4 1.1,1 z m -0.1,-2.5 c 0,0.6 -0.5,0.9 -1,0.9 h -1.4 v -1.9 h 1.4 c 0.5,0.1 1,0.4 1,1 z m 5.6,4 V 18.3 H 26 v -1.9 h 2.3 V 15.9 H 26 V 14 h 2.7 v -0.5 h -3.3 v 5.3 z m 5.2,0 -1.3,-2.4 c 0.7,-0.1 1.2,-0.7 1.2,-1.4 0,-0.9 -0.7,-1.5 -1.6,-1.5 h -2 v 5.3 h 0.6 v -2.4 h 1.3 l 1.2,2.4 z m -0.7,-3.9 c 0,0.7 -0.4,1 -1.1,1 h -1.4 v -2 h 1.4 c 0.7,0 1.1,0.4 1.1,1 z m 5.4,3.9 v -0.5 h -2.7 v -1.9 h 2.3 V 15.9 H 35.9 V 14 h 2.7 v -0.5 h -3.3 v 5.3 z m 2.2,0 v -5.3 h -0.6 v 5.3 z m 5.3,-1.6 h -0.6 c -0.1,0.7 -0.6,1.1 -1.3,1.1 -0.4,0 -0.7,-0.1 -0.9,-0.4 -0.3,-0.3 -0.4,-0.7 -0.4,-1.8 0,-1.1 0,-1.5 0.4,-1.8 0.2,-0.2 0.6,-0.4 0.9,-0.4 0.7,0 1.1,0.4 1.3,1.1 h 0.6 c -0.2,-1 -0.9,-1.6 -1.9,-1.6 -0.5,0 -1,0.2 -1.4,0.6 -0.5,0.5 -0.5,1 -0.5,2.2 0,1.1 0,1.7 0.5,2.2 0.4,0.4 0.8,0.6 1.4,0.6 1,-0.2 1.8,-0.8 1.9,-1.8 z m 5.2,1.6 v -5.3 h -0.6 v 2.4 h -2.5 v -2.4 h -0.6 v 5.3 h 0.6 v -2.4 h 2.5 v 2.4 z m 4.7,0 v -5.3 h -0.6 v 5.3 z m 5.7,0 v -5.3 h -0.6 v 4.3 l -2.8,-4.3 h -0.5 v 5.3 h 0.6 v -4.3 l 2.8,4.3 z m 5.1,-4.9 v -0.5 h -3.3 v 5.3 h 0.6 v -2.4 h 2.3 v -0.5 h -2.3 v -2 h 2.7 z m 4.8,2.2 c 0,-1.1 0,-1.7 -0.5,-2.2 -0.4,-0.4 -0.8,-0.6 -1.4,-0.6 -0.5,0 -1,0.2 -1.4,0.6 -0.5,0.5 -0.5,1.1 -0.5,2.2 0,1.1 0,1.7 0.5,2.2 0.4,0.4 0.8,0.6 1.4,0.6 0.5,0 1,-0.2 1.4,-0.6 0.5,-0.6 0.5,-1.1 0.5,-2.2 z m -0.6,0 c 0,1.1 0,1.5 -0.4,1.8 -0.2,0.2 -0.6,0.4 -0.9,0.4 -0.4,0 -0.7,-0.1 -0.9,-0.4 -0.3,-0.3 -0.4,-0.7 -0.4,-1.8 0,-1.1 0,-1.5 0.4,-1.8 0.2,-0.2 0.6,-0.4 0.9,-0.4 0.4,0 0.7,0.1 0.9,0.4 0.4,0.3 0.4,0.7 0.4,1.8 z m 5.8,2.7 -1.3,-2.4 c 0.7,-0.1 1.2,-0.7 1.2,-1.4 0,-0.9 -0.7,-1.5 -1.6,-1.5 h -2 v 5.3 h 0.6 V 16.4 H 75 l 1.2,2.4 z m -0.6,-3.9 c 0,0.7 -0.4,1 -1.1,1 h -1.4 v -2 h 1.4 c 0.6,0 1.1,0.4 1.1,1 z m 6.7,3.9 v -5.3 h -0.6 l -1.7,3.8 -1.7,-3.8 h -0.6 v 5.3 h 0.6 v -4.1 l 1.5,3.2 h 0.5 l 1.5,-3.2 v 4.1 z m 5.7,0 -2,-5.3 h -0.5 l -2,5.3 h 0.7 l 0.4,-1.2 h 2.3 l 0.4,1.2 z m -1.2,-1.7 h -2 l 1,-2.8 z m 5.1,-3.2 v -0.5 h -3.7 v 0.5 h 1.5 v 4.8 h 0.6 v -4.8 z m 2,4.9 v -5.3 h -0.6 v 5.3 z m 5.7,0 -1.9,-3.3 1.7,-2.1 h -0.7 l -2.5,3.1 v -3.1 h -0.6 v 5.3 h 0.6 v -1.5 l 1.1,-1.3 1.6,2.8 h 0.7 z"
   id="path10"
   inkscape:connector-curvature="0" />
<path
   d="M 3.6,4.1 V 2.8 H 2.4 V 2 C 2.4,1.6 2.6,1.4 3,1.4 H 3.7 V 0 h -1 c -1.4,0 -2,1 -2,1.9 V 2.7 H 0 V 4 H 0.7 V 9.3 H 2.4 V 4 H 3.6 Z M 10.8,6 c 0,-1 0,-2.2 -0.7,-2.8 C 9.7,2.8 9.1,2.6 8.4,2.6 7.7,2.6 7.2,2.8 6.8,3.3 V 0.2 H 5.1 V 9.5 H 6.7 V 8.9 c 0.5,0.5 1,0.7 1.7,0.7 0.7,0 1.3,-0.2 1.7,-0.6 0.7,-0.9 0.7,-2 0.7,-3 z M 9.1,6 C 9.1,7.1 9,8 8,8 7,8 6.9,7.2 6.9,6 c -0.1,-1.1 0,-2 1,-2 1,0 1.2,0.9 1.2,2 z m 5.4,3.4 V 2.6 h -1.7 v 6.8 z m 0.1,-8 V 0 h -1.8 v 1.4 z"
   id="path12"
   inkscape:connector-curvature="0" />



</svg>